C:\GBW_MyPrograms\KinderuniversiteitApp\Resultaten\Ellis\Smurf\Smurf_v1.mot
version=1
nRows=11
nColumns=29
inDegrees=yes
endheader
                time	         pelvis_tilt	           pelvis_tx	           pelvis_ty	       hip_flexion_l	       hip_flexion_r	        knee_angle_l	        knee_angle_r	       ankle_angle_l	       ankle_angle_r	    lumbar_extension	hamstrings_r/activation	bifemsh_r/activation	glut_max_r/activation	iliopsoas_r/activation	rect_fem_r/activation	  vasti_r/activation	gastroc_r/activation	 soleus_r/activation	tib_ant_r/activation	hamstrings_l/activation	bifemsh_l/activation	glut_max_l/activation	iliopsoas_l/activation	rect_fem_l/activation	  vasti_l/activation	gastroc_l/activation	 soleus_l/activation	tib_ant_l/activation	
          1.99999969	         -8.68981600	          0.39379721	          0.91200946	          5.11412171	         26.01450374	         -0.62812704	        -13.88363369	         11.64309078	          1.96530393	          1.29524617	          0.05000263	          0.05001349	          0.05000657	          0.18354080	          0.18265571	          0.08182364	          0.05000447	          0.05000378	          0.25627194	          0.05000317	          0.05003422	          0.05000490	          0.34269752	          0.16361810	          0.05002963	          0.05005930	          0.05745863	          0.08665139	
          2.01999969	         -8.71490620	          0.40058703	          0.91164598	          4.68828513	         24.91267041	         -0.70523889	        -12.49881981	         12.03660046	          1.40774600	          1.55468748	          0.05000442	          0.05002115	          0.05000801	          0.13765614	          0.19182933	          0.13121509	          0.05000757	          0.05001203	          0.24368931	          0.05000473	          0.05004664	          0.05000616	          0.28392152	          0.14709056	          0.05002441	          0.05021955	          0.07894730	          0.06499271	
          2.03999968	         -8.72039605	          0.40786970	          0.91142328	          4.21877252	         23.64828538	         -0.79883856	        -10.99781142	         12.38642236	          1.04188871	          1.84391181	          0.05000390	          0.05000745	          0.10147808	          0.10324255	          0.22582510	          0.23713136	          0.05000200	          0.05000300	          0.29287387	          0.05000400	          0.05002708	          0.05000635	          0.21557829	          0.15382542	          0.05600931	          0.05003020	          0.09700108	          0.05001252	
          2.05999968	         -8.70765230	          0.41544994	          0.91149645	          3.71772558	         22.34781570	         -0.90006269	         -9.51660660	         12.65851537	          0.84340259	          2.14190069	          0.05000390	          0.05000582	          0.19363100	          0.07743240	          0.25470272	          0.31895216	          0.05000144	          0.05000233	          0.30829694	          0.05000391	          0.05002495	          0.05000567	          0.19508147	          0.15995654	          0.09065196	          0.05002363	          0.10664445	          0.05001516	
          2.07999968	         -8.67757573	          0.42315439	          0.91188637	          3.19234675	         21.08867991	         -0.99557507	         -8.17000647	         12.82849936	          0.81155419	          2.43070478	          0.05000437	          0.05000512	          0.25355822	          0.05807505	          0.27344601	          0.37377459	          0.05000155	          0.05000393	          0.29447369	          0.05000435	          0.05002257	          0.05000809	          0.17490425	          0.16303078	          0.11392375	          0.05001583	          0.10934422	          0.05001821	
          2.09999967	         -8.63071201	          0.43086970	          0.91248076	          2.64616345	         19.88076353	         -1.07562808	         -6.96103262	         12.89240199	          0.92309553	          2.69991221	          0.05000540	          0.05000528	          0.27465277	          0.05000210	          0.27269067	          0.39530430	          0.05000151	          0.05000359	          0.29687076	          0.05000490	          0.05002194	          0.05001056	          0.14236245	          0.15641268	          0.11942900	          0.05001440	          0.11514383	          0.05001965	
          2.11999967	         -8.56756065	          0.43852279	          0.91312453	          2.07970396	         18.71449179	         -1.13282834	         -5.85906420	         12.87208864	          1.12120896	          2.94399404	          0.05000556	          0.05000587	          0.27378004	          0.05000325	          0.25570828	          0.39001291	          0.05000150	          0.05000291	          0.30723482	          0.05000475	          0.05002264	          0.05000763	          0.10778482	          0.14169013	          0.11798894	          0.05001541	          0.12604435	          0.05001971	
          2.13999967	         -8.48912461	          0.44605652	          0.91369473	          1.49239063	         17.58879979	         -1.16007044	         -4.85159361	         12.80333224	          1.37088539	          3.15965730	          0.05001045	          0.05000662	          0.26156030	          0.05000307	          0.22548037	          0.36578454	          0.05000154	          0.05000251	          0.31978976	          0.05000662	          0.05002241	          0.05001442	          0.08094600	          0.12279834	          0.11319001	          0.05001800	          0.14173544	          0.05001575	
          2.15999966	         -8.39718350	          0.45341679	          0.91413135	          0.88615537	         16.51202344	         -1.15311411	         -3.94457774	         12.71843921	          1.66498596	          3.34451931	          0.05001160	          0.05000787	          0.24099550	          0.05000377	          0.18118579	          0.32950890	          0.05000167	          0.05000230	          0.33119425	          0.05000669	          0.05002330	          0.05001261	          0.06093140	          0.10552733	          0.10708295	          0.05005224	          0.15803621	          0.05001028	
          2.17999966	         -8.29438297	          0.46055042	          0.91443236	          0.26700835	         15.49687996	         -1.11173116	         -3.15069720	         12.63445405	          2.00297775	          3.49705333	          0.05003008	          0.05000943	          0.21882333	          0.05000393	          0.13593868	          0.28673554	          0.05000182	          0.05000215	          0.34037648	          0.05001014	          0.05002339	          0.05002788	          0.05002689	          0.08461861	          0.09844629	          0.05912746	          0.16921802	          0.05000866	
          2.19999966	         -8.18394832	          0.46740740	          0.91463248	         -0.35135193	         14.55432107	         -1.04758357	         -2.47757946	         12.55714022	          2.37873780	          3.61662471	          0.05404119	          0.05001178	          0.19755953	          0.05000485	          0.10197318	          0.24040090	          0.05000201	          0.05000201	          0.34679884	          0.05001325	          0.05002460	          0.05002904	          0.05002916	          0.06454176	          0.09208401	          0.07213575	          0.17436359	          0.05000792	
